<mxfile host="65bd71144e">
    <diagram id="SCuHcFxAUamTaQBNhxje" name="Page-1">
        <mxGraphModel dx="806" dy="650" grid="0" gridSize="10" guides="1" tooltips="1" connect="1" arrows="1" fold="1" page="0" pageScale="1" pageWidth="850" pageHeight="1100" math="0" shadow="0">
            <root>
                <mxCell id="0"/>
                <mxCell id="1" parent="0"/>
                <mxCell id="2" value="Начало" style="rounded=1;whiteSpace=wrap;html=1;arcSize=50;" parent="1" vertex="1">
                    <mxGeometry x="529" y="75" width="120" height="40" as="geometry"/>
                </mxCell>
                <mxCell id="3" value="Конец" style="rounded=1;whiteSpace=wrap;html=1;arcSize=50;" parent="1" vertex="1">
                    <mxGeometry x="537.5" y="649" width="120" height="40" as="geometry"/>
                </mxCell>
                <mxCell id="4" value="" style="rhombus;whiteSpace=wrap;html=1;" parent="1" vertex="1">
                    <mxGeometry x="519" y="135" width="140" height="100" as="geometry"/>
                </mxCell>
                <mxCell id="5" value="равно кол-ву" style="text;html=1;strokeColor=none;fillColor=none;align=center;verticalAlign=middle;whiteSpace=wrap;rounded=0;" parent="1" vertex="1">
                    <mxGeometry x="529" y="170" width="120" height="30" as="geometry"/>
                </mxCell>
                <mxCell id="6" value="кол-во столбцов А" style="text;html=1;strokeColor=none;fillColor=none;align=center;verticalAlign=middle;whiteSpace=wrap;rounded=0;" parent="1" vertex="1">
                    <mxGeometry x="539" y="161" width="105" height="30" as="geometry"/>
                </mxCell>
                <mxCell id="7" value="строк B?" style="text;html=1;strokeColor=none;fillColor=none;align=center;verticalAlign=middle;whiteSpace=wrap;rounded=0;" parent="1" vertex="1">
                    <mxGeometry x="559" y="182" width="60" height="30" as="geometry"/>
                </mxCell>
                <mxCell id="8" value="" style="rounded=0;whiteSpace=wrap;html=1;" parent="1" vertex="1">
                    <mxGeometry x="399" y="235" width="120" height="40" as="geometry"/>
                </mxCell>
                <mxCell id="9" value="Вывести сообщение" style="text;html=1;strokeColor=none;fillColor=none;align=center;verticalAlign=middle;whiteSpace=wrap;rounded=0;" parent="1" vertex="1">
                    <mxGeometry x="399" y="235" width="120" height="30" as="geometry"/>
                </mxCell>
                <mxCell id="10" value="об ошибке" style="text;html=1;strokeColor=none;fillColor=none;align=center;verticalAlign=middle;whiteSpace=wrap;rounded=0;" parent="1" vertex="1">
                    <mxGeometry x="414.5" y="246" width="89" height="30" as="geometry"/>
                </mxCell>
                <mxCell id="12" value="" style="shape=loopLimit;whiteSpace=wrap;html=1;" parent="1" vertex="1">
                    <mxGeometry x="659" y="235" width="120" height="42" as="geometry"/>
                </mxCell>
                <mxCell id="13" value="" style="shape=loopLimit;verticalAlign=middle;rounded=0;rotation=-180;editable=1;movable=1;resizable=1;rotatable=1;deletable=1;connectable=1;horizontal=1;whiteSpace=wrap;html=1;" parent="1" vertex="1">
                    <mxGeometry x="658.5" y="570" width="120" height="36" as="geometry"/>
                </mxCell>
                <mxCell id="18" value="Цикл по i от 0 до" style="text;html=1;strokeColor=none;fillColor=none;align=center;verticalAlign=middle;whiteSpace=wrap;rounded=0;" parent="1" vertex="1">
                    <mxGeometry x="668" y="235" width="100" height="30" as="geometry"/>
                </mxCell>
                <mxCell id="19" value="кол-ва строк A" style="text;html=1;strokeColor=none;fillColor=none;align=center;verticalAlign=middle;whiteSpace=wrap;rounded=0;" parent="1" vertex="1">
                    <mxGeometry x="658.5" y="247" width="119" height="30" as="geometry"/>
                </mxCell>
                <mxCell id="20" value="Конец цикла по i" style="text;html=1;strokeColor=none;fillColor=none;align=center;verticalAlign=middle;whiteSpace=wrap;rounded=0;" parent="1" vertex="1">
                    <mxGeometry x="658.5" y="570" width="120" height="30" as="geometry"/>
                </mxCell>
                <mxCell id="21" value="" style="shape=loopLimit;whiteSpace=wrap;html=1;" parent="1" vertex="1">
                    <mxGeometry x="659.5" y="292" width="120" height="42" as="geometry"/>
                </mxCell>
                <mxCell id="22" value="" style="shape=loopLimit;verticalAlign=middle;rounded=0;rotation=-180;editable=1;movable=1;resizable=1;rotatable=1;deletable=1;connectable=1;horizontal=1;whiteSpace=wrap;html=1;" parent="1" vertex="1">
                    <mxGeometry x="658.5" y="519" width="120" height="36" as="geometry"/>
                </mxCell>
                <mxCell id="23" value="Цикл по j от 0 до" style="text;html=1;strokeColor=none;fillColor=none;align=center;verticalAlign=middle;whiteSpace=wrap;rounded=0;" parent="1" vertex="1">
                    <mxGeometry x="668.5" y="292" width="100" height="30" as="geometry"/>
                </mxCell>
                <mxCell id="24" value="кол-ва столбцов B" style="text;html=1;strokeColor=none;fillColor=none;align=center;verticalAlign=middle;whiteSpace=wrap;rounded=0;" parent="1" vertex="1">
                    <mxGeometry x="659" y="304" width="119" height="30" as="geometry"/>
                </mxCell>
                <mxCell id="25" value="Конец цикла по j" style="text;html=1;strokeColor=none;fillColor=none;align=center;verticalAlign=middle;whiteSpace=wrap;rounded=0;" parent="1" vertex="1">
                    <mxGeometry x="658.5" y="519" width="120" height="30" as="geometry"/>
                </mxCell>
                <mxCell id="26" value="" style="shape=loopLimit;whiteSpace=wrap;html=1;" parent="1" vertex="1">
                    <mxGeometry x="659.5" y="349" width="120" height="42" as="geometry"/>
                </mxCell>
                <mxCell id="27" value="" style="shape=loopLimit;verticalAlign=middle;rounded=0;rotation=-180;editable=1;movable=1;resizable=1;rotatable=1;deletable=1;connectable=1;horizontal=1;whiteSpace=wrap;html=1;" parent="1" vertex="1">
                    <mxGeometry x="658.5" y="469" width="120" height="36" as="geometry"/>
                </mxCell>
                <mxCell id="28" value="Цикл по k от 0 до" style="text;html=1;strokeColor=none;fillColor=none;align=center;verticalAlign=middle;whiteSpace=wrap;rounded=0;" parent="1" vertex="1">
                    <mxGeometry x="668.5" y="349" width="100" height="30" as="geometry"/>
                </mxCell>
                <mxCell id="29" value="кол-ва строк B" style="text;html=1;strokeColor=none;fillColor=none;align=center;verticalAlign=middle;whiteSpace=wrap;rounded=0;" parent="1" vertex="1">
                    <mxGeometry x="659" y="361" width="119" height="30" as="geometry"/>
                </mxCell>
                <mxCell id="30" value="Конец цикла по k" style="text;html=1;strokeColor=none;fillColor=none;align=center;verticalAlign=middle;whiteSpace=wrap;rounded=0;" parent="1" vertex="1">
                    <mxGeometry x="658.5" y="469" width="120" height="30" as="geometry"/>
                </mxCell>
                <mxCell id="31" value="" style="rounded=0;whiteSpace=wrap;html=1;" parent="1" vertex="1">
                    <mxGeometry x="659" y="417" width="120" height="33" as="geometry"/>
                </mxCell>
                <mxCell id="32" value="С[i][j]+=" style="text;html=1;strokeColor=none;fillColor=none;align=center;verticalAlign=middle;whiteSpace=wrap;rounded=0;" parent="1" vertex="1">
                    <mxGeometry x="658.5" y="417" width="47.5" height="30" as="geometry"/>
                </mxCell>
                <mxCell id="33" value="" style="endArrow=classic;html=1;exitX=1;exitY=0.5;exitDx=0;exitDy=0;entryX=0.5;entryY=0;entryDx=0;entryDy=0;edgeStyle=orthogonalEdgeStyle;rounded=0;" parent="1" source="4" target="18" edge="1">
                    <mxGeometry width="50" height="50" relative="1" as="geometry">
                        <mxPoint x="620" y="552" as="sourcePoint"/>
                        <mxPoint x="670" y="502" as="targetPoint"/>
                    </mxGeometry>
                </mxCell>
                <mxCell id="34" value="" style="endArrow=classic;html=1;edgeStyle=orthogonalEdgeStyle;rounded=0;" parent="1" source="12" target="21" edge="1">
                    <mxGeometry width="50" height="50" relative="1" as="geometry">
                        <mxPoint x="620" y="552" as="sourcePoint"/>
                        <mxPoint x="670" y="502" as="targetPoint"/>
                    </mxGeometry>
                </mxCell>
                <mxCell id="35" value="" style="endArrow=classic;html=1;edgeStyle=orthogonalEdgeStyle;rounded=0;" parent="1" source="21" target="26" edge="1">
                    <mxGeometry width="50" height="50" relative="1" as="geometry">
                        <mxPoint x="620" y="552" as="sourcePoint"/>
                        <mxPoint x="670" y="502" as="targetPoint"/>
                    </mxGeometry>
                </mxCell>
                <mxCell id="36" value="" style="endArrow=classic;html=1;edgeStyle=orthogonalEdgeStyle;rounded=0;" parent="1" source="26" target="31" edge="1">
                    <mxGeometry width="50" height="50" relative="1" as="geometry">
                        <mxPoint x="620" y="552" as="sourcePoint"/>
                        <mxPoint x="670" y="502" as="targetPoint"/>
                    </mxGeometry>
                </mxCell>
                <mxCell id="37" value="" style="endArrow=classic;html=1;edgeStyle=orthogonalEdgeStyle;rounded=0;" parent="1" source="31" target="30" edge="1">
                    <mxGeometry width="50" height="50" relative="1" as="geometry">
                        <mxPoint x="620" y="552" as="sourcePoint"/>
                        <mxPoint x="670" y="502" as="targetPoint"/>
                    </mxGeometry>
                </mxCell>
                <mxCell id="38" value="" style="endArrow=classic;html=1;edgeStyle=orthogonalEdgeStyle;rounded=0;" parent="1" source="27" target="22" edge="1">
                    <mxGeometry width="50" height="50" relative="1" as="geometry">
                        <mxPoint x="620" y="552" as="sourcePoint"/>
                        <mxPoint x="670" y="502" as="targetPoint"/>
                    </mxGeometry>
                </mxCell>
                <mxCell id="39" value="" style="endArrow=classic;html=1;edgeStyle=orthogonalEdgeStyle;rounded=0;entryX=0.5;entryY=1;entryDx=0;entryDy=0;exitX=0.5;exitY=0;exitDx=0;exitDy=0;" parent="1" source="22" target="13" edge="1">
                    <mxGeometry width="50" height="50" relative="1" as="geometry">
                        <mxPoint x="620" y="552" as="sourcePoint"/>
                        <mxPoint x="744" y="624" as="targetPoint"/>
                    </mxGeometry>
                </mxCell>
                <mxCell id="40" value="" style="endArrow=classic;html=1;exitX=0;exitY=0.5;exitDx=0;exitDy=0;entryX=0.5;entryY=0;entryDx=0;entryDy=0;edgeStyle=orthogonalEdgeStyle;rounded=0;" parent="1" source="4" target="9" edge="1">
                    <mxGeometry width="50" height="50" relative="1" as="geometry">
                        <mxPoint x="636" y="495" as="sourcePoint"/>
                        <mxPoint x="695" y="448" as="targetPoint"/>
                    </mxGeometry>
                </mxCell>
                <mxCell id="42" value="" style="endArrow=classic;html=1;rounded=0;exitX=0.5;exitY=0;exitDx=0;exitDy=0;entryX=0.5;entryY=0;entryDx=0;entryDy=0;edgeStyle=orthogonalEdgeStyle;" parent="1" source="13" target="3" edge="1">
                    <mxGeometry width="50" height="50" relative="1" as="geometry">
                        <mxPoint x="645" y="498" as="sourcePoint"/>
                        <mxPoint x="695" y="448" as="targetPoint"/>
                        <Array as="points">
                            <mxPoint x="718" y="626"/>
                            <mxPoint x="598" y="626"/>
                        </Array>
                    </mxGeometry>
                </mxCell>
                <mxCell id="43" value="" style="endArrow=classic;html=1;rounded=0;exitX=0.5;exitY=1;exitDx=0;exitDy=0;edgeStyle=orthogonalEdgeStyle;entryX=0.5;entryY=0;entryDx=0;entryDy=0;endFill=0;" parent="1" source="10" target="3" edge="1">
                    <mxGeometry width="50" height="50" relative="1" as="geometry">
                        <mxPoint x="645" y="498" as="sourcePoint"/>
                        <mxPoint x="597" y="627" as="targetPoint"/>
                        <Array as="points">
                            <mxPoint x="459" y="626"/>
                            <mxPoint x="598" y="626"/>
                        </Array>
                    </mxGeometry>
                </mxCell>
                <mxCell id="44" value="" style="endArrow=classic;html=1;rounded=0;exitX=0.5;exitY=1;exitDx=0;exitDy=0;entryX=0.5;entryY=0;entryDx=0;entryDy=0;" parent="1" source="2" target="4" edge="1">
                    <mxGeometry width="50" height="50" relative="1" as="geometry">
                        <mxPoint x="616" y="358" as="sourcePoint"/>
                        <mxPoint x="666" y="308" as="targetPoint"/>
                    </mxGeometry>
                </mxCell>
                <mxCell id="45" value="Да" style="text;html=1;strokeColor=none;fillColor=none;align=center;verticalAlign=middle;whiteSpace=wrap;rounded=0;" parent="1" vertex="1">
                    <mxGeometry x="657.5" y="155" width="60" height="30" as="geometry"/>
                </mxCell>
                <mxCell id="46" value="A[i][k] *" style="text;html=1;strokeColor=none;fillColor=none;align=center;verticalAlign=middle;whiteSpace=wrap;rounded=0;" parent="1" vertex="1">
                    <mxGeometry x="699.5" y="417" width="48.5" height="30" as="geometry"/>
                </mxCell>
                <mxCell id="47" value="&amp;nbsp;B[k][j]" style="text;html=1;strokeColor=none;fillColor=none;align=center;verticalAlign=middle;whiteSpace=wrap;rounded=0;" parent="1" vertex="1">
                    <mxGeometry x="728" y="417" width="60" height="30" as="geometry"/>
                </mxCell>
            </root>
        </mxGraphModel>
    </diagram>
</mxfile>